<svg xmlns="http://www.w3.org/2000/svg" viewBox="0 0 900 300" fill="none" id="js-cover-mark" preserveAspectRatio="xMidYMid slice">
  <defs>
    <!-- Hatching pattern parallel to y-axis (150 degrees) -->
    <pattern id="hatch-pattern" width="8" height="8" patternUnits="userSpaceOnUse" patternTransform="rotate(150)">
      <line x1="0" y1="0" x2="0" y2="8" stroke="currentColor" stroke-width="1.2" />
    </pattern>
  </defs>

  <!-- Main Axis Line -->
  <line x1="644.86" y1="24.00" x2="255.14" y2="249.00" stroke="currentColor" stroke-width="1" stroke-dasharray="4,4" opacity="0.12" />
  <!-- Perpendicular Axis Line H -->
  <line x1="430.51" y1="12.75" x2="664.34" y2="147.75" stroke="currentColor" stroke-width="1" stroke-dasharray="4,4" opacity="0.12" />
  <!-- Perpendicular Axis Line C -->
  <line x1="235.66" y1="125.25" x2="469.49" y2="260.25" stroke="currentColor" stroke-width="1" stroke-dasharray="4,4" opacity="0.12" />

  <!-- Block H at (0.0, 0.0) -->
  <polygon points="547.43,35.25 586.40,57.75 547.43,80.25 508.46,57.75" fill="none" stroke="currentColor" stroke-width="1" opacity="0.08" />
  <polygon points="508.46,57.75 547.43,80.25 547.43,62.25 508.46,39.75" fill="none" stroke="currentColor" stroke-width="1.2" />
  <polygon points="586.40,57.75 547.43,80.25 547.43,62.25 586.40,39.75" fill="none" stroke="currentColor" stroke-width="1.2" />
  <polygon points="547.43,17.25 586.40,39.75 547.43,62.25 508.46,39.75" fill="url(#hatch-pattern)" stroke="currentColor" stroke-width="1.2" />
  <!-- Block H at (1.0, 0.0) -->
  <polygon points="586.40,57.75 625.37,80.25 586.40,102.75 547.43,80.25" fill="none" stroke="currentColor" stroke-width="1" opacity="0.08" />
  <polygon points="547.43,80.25 586.40,102.75 586.40,84.75 547.43,62.25" fill="none" stroke="currentColor" stroke-width="1.2" />
  <polygon points="625.37,80.25 586.40,102.75 586.40,84.75 625.37,62.25" fill="none" stroke="currentColor" stroke-width="1.2" />
  <polygon points="586.40,39.75 625.37,62.25 586.40,84.75 547.43,62.25" fill="url(#hatch-pattern)" stroke="currentColor" stroke-width="1.2" />
  <!-- Block H at (0.0, 2.0) -->
  <polygon points="469.49,80.25 508.46,102.75 469.49,125.25 430.51,102.75" fill="none" stroke="currentColor" stroke-width="1" opacity="0.08" />
  <polygon points="430.51,102.75 469.49,125.25 469.49,107.25 430.51,84.75" fill="none" stroke="currentColor" stroke-width="1.2" />
  <polygon points="508.46,102.75 469.49,125.25 469.49,107.25 508.46,84.75" fill="none" stroke="currentColor" stroke-width="1.2" />
  <polygon points="469.49,62.25 508.46,84.75 469.49,107.25 430.51,84.75" fill="url(#hatch-pattern)" stroke="currentColor" stroke-width="1.2" />
  <!-- Block H at (1.0, 1.0) -->
  <polygon points="547.43,80.25 586.40,102.75 547.43,125.25 508.46,102.75" fill="none" stroke="currentColor" stroke-width="1" opacity="0.08" />
  <polygon points="508.46,102.75 547.43,125.25 547.43,107.25 508.46,84.75" fill="none" stroke="currentColor" stroke-width="1.2" />
  <polygon points="586.40,102.75 547.43,125.25 547.43,107.25 586.40,84.75" fill="none" stroke="currentColor" stroke-width="1.2" />
  <polygon points="547.43,62.25 586.40,84.75 547.43,107.25 508.46,84.75" fill="url(#hatch-pattern)" stroke="currentColor" stroke-width="1.2" />
  <!-- Block H at (2.0, 0.0) -->
  <polygon points="625.37,80.25 664.34,102.75 625.37,125.25 586.40,102.75" fill="none" stroke="currentColor" stroke-width="1" opacity="0.08" />
  <polygon points="586.40,102.75 625.37,125.25 625.37,107.25 586.40,84.75" fill="none" stroke="currentColor" stroke-width="1.2" />
  <polygon points="664.34,102.75 625.37,125.25 625.37,107.25 664.34,84.75" fill="none" stroke="currentColor" stroke-width="1.2" />
  <polygon points="625.37,62.25 664.34,84.75 625.37,107.25 586.40,84.75" fill="url(#hatch-pattern)" stroke="currentColor" stroke-width="1.2" />
  <!-- Block H at (1.0, 2.0) -->
  <polygon points="508.46,102.75 547.43,125.25 508.46,147.75 469.49,125.25" fill="none" stroke="currentColor" stroke-width="1" opacity="0.08" />
  <polygon points="469.49,125.25 508.46,147.75 508.46,129.75 469.49,107.25" fill="none" stroke="currentColor" stroke-width="1.2" />
  <polygon points="547.43,125.25 508.46,147.75 508.46,129.75 547.43,107.25" fill="none" stroke="currentColor" stroke-width="1.2" />
  <polygon points="508.46,84.75 547.43,107.25 508.46,129.75 469.49,107.25" fill="url(#hatch-pattern)" stroke="currentColor" stroke-width="1.2" />
  <!-- Block H at (2.0, 2.0) -->
  <polygon points="547.43,125.25 586.40,147.75 547.43,170.25 508.46,147.75" fill="none" stroke="currentColor" stroke-width="1" opacity="0.08" />
  <polygon points="508.46,147.75 547.43,170.25 547.43,152.25 508.46,129.75" fill="none" stroke="currentColor" stroke-width="1.2" />
  <polygon points="586.40,147.75 547.43,170.25 547.43,152.25 586.40,129.75" fill="none" stroke="currentColor" stroke-width="1.2" />
  <polygon points="547.43,107.25 586.40,129.75 547.43,152.25 508.46,129.75" fill="url(#hatch-pattern)" stroke="currentColor" stroke-width="1.2" />
  <!-- Block C at (0.0, 5.0) -->
  <polygon points="352.57,147.75 391.54,170.25 352.57,192.75 313.60,170.25" fill="none" stroke="currentColor" stroke-width="1" opacity="0.08" />
  <polygon points="313.60,170.25 352.57,192.75 352.57,174.75 313.60,152.25" fill="none" stroke="currentColor" stroke-width="1.2" />
  <polygon points="391.54,170.25 352.57,192.75 352.57,174.75 391.54,152.25" fill="none" stroke="currentColor" stroke-width="1.2" />
  <polygon points="352.57,129.75 391.54,152.25 352.57,174.75 313.60,152.25" fill="url(#hatch-pattern)" stroke="currentColor" stroke-width="1.2" />
  <!-- Block C at (0.0, 6.0) -->
  <polygon points="313.60,170.25 352.57,192.75 313.60,215.25 274.63,192.75" fill="none" stroke="currentColor" stroke-width="1" opacity="0.08" />
  <polygon points="274.63,192.75 313.60,215.25 313.60,197.25 274.63,174.75" fill="none" stroke="currentColor" stroke-width="1.2" />
  <polygon points="352.57,192.75 313.60,215.25 313.60,197.25 352.57,174.75" fill="none" stroke="currentColor" stroke-width="1.2" />
  <polygon points="313.60,152.25 352.57,174.75 313.60,197.25 274.63,174.75" fill="url(#hatch-pattern)" stroke="currentColor" stroke-width="1.2" />
  <!-- Block C at (0.0, 7.0) -->
  <polygon points="274.63,192.75 313.60,215.25 274.63,237.75 235.66,215.25" fill="none" stroke="currentColor" stroke-width="1" opacity="0.08" />
  <polygon points="235.66,215.25 274.63,237.75 274.63,219.75 235.66,197.25" fill="none" stroke="currentColor" stroke-width="1.2" />
  <polygon points="313.60,215.25 274.63,237.75 274.63,219.75 313.60,197.25" fill="none" stroke="currentColor" stroke-width="1.2" />
  <polygon points="274.63,174.75 313.60,197.25 274.63,219.75 235.66,197.25" fill="url(#hatch-pattern)" stroke="currentColor" stroke-width="1.2" />
  <!-- Block C at (2.0, 5.0) -->
  <polygon points="430.51,192.75 469.49,215.25 430.51,237.75 391.54,215.25" fill="none" stroke="currentColor" stroke-width="1" opacity="0.08" />
  <polygon points="391.54,215.25 430.51,237.75 430.51,219.75 391.54,197.25" fill="none" stroke="currentColor" stroke-width="1.2" />
  <polygon points="469.49,215.25 430.51,237.75 430.51,219.75 469.49,197.25" fill="none" stroke="currentColor" stroke-width="1.2" />
  <polygon points="430.51,174.75 469.49,197.25 430.51,219.75 391.54,197.25" fill="url(#hatch-pattern)" stroke="currentColor" stroke-width="1.2" />
  <!-- Block C at (1.0, 7.0) -->
  <polygon points="313.60,215.25 352.57,237.75 313.60,260.25 274.63,237.75" fill="none" stroke="currentColor" stroke-width="1" opacity="0.08" />
  <polygon points="274.63,237.75 313.60,260.25 313.60,242.25 274.63,219.75" fill="none" stroke="currentColor" stroke-width="1.2" />
  <polygon points="352.57,237.75 313.60,260.25 313.60,242.25 352.57,219.75" fill="none" stroke="currentColor" stroke-width="1.2" />
  <polygon points="313.60,197.25 352.57,219.75 313.60,242.25 274.63,219.75" fill="url(#hatch-pattern)" stroke="currentColor" stroke-width="1.2" />
  <!-- Block C at (2.0, 6.0) -->
  <polygon points="391.54,215.25 430.51,237.75 391.54,260.25 352.57,237.75" fill="none" stroke="currentColor" stroke-width="1" opacity="0.08" />
  <polygon points="352.57,237.75 391.54,260.25 391.54,242.25 352.57,219.75" fill="none" stroke="currentColor" stroke-width="1.2" />
  <polygon points="430.51,237.75 391.54,260.25 391.54,242.25 430.51,219.75" fill="none" stroke="currentColor" stroke-width="1.2" />
  <polygon points="391.54,197.25 430.51,219.75 391.54,242.25 352.57,219.75" fill="url(#hatch-pattern)" stroke="currentColor" stroke-width="1.2" />
  <!-- Block C at (2.0, 7.0) -->
  <polygon points="352.57,237.75 391.54,260.25 352.57,282.75 313.60,260.25" fill="none" stroke="currentColor" stroke-width="1" opacity="0.08" />
  <polygon points="313.60,260.25 352.57,282.75 352.57,264.75 313.60,242.25" fill="none" stroke="currentColor" stroke-width="1.2" />
  <polygon points="391.54,260.25 352.57,282.75 352.57,264.75 391.54,242.25" fill="none" stroke="currentColor" stroke-width="1.2" />
  <polygon points="352.57,219.75 391.54,242.25 352.57,264.75 313.60,242.25" fill="url(#hatch-pattern)" stroke="currentColor" stroke-width="1.2" />

  <!-- Figure label -->
  <text x="606.40" y="195.25" font-family="var(--font-mono)" font-size="10" font-weight="500" fill="currentColor" opacity="0.3" letter-spacing="1">FIG_001</text>
</svg>